<?xml version="1.0" encoding="UTF-8"?>
<!DOCTYPE svg PUBLIC "-//W3C//DTD SVG 1.1//EN" "http://www.w3.org/Graphics/SVG/1.1/DTD/svg11.dtd">
<svg xmlns="http://www.w3.org/2000/svg" version="1.1" width="500px" height="500px" style="shape-rendering:geometricPrecision; text-rendering:geometricPrecision; image-rendering:optimizeQuality; fill-rule:evenodd; clip-rule:evenodd" xmlns:xlink="http://www.w3.org/1999/xlink">
<g><path style="opacity:1" fill="#fefefe" d="M -0.5,-0.5 C 166.167,-0.5 332.833,-0.5 499.5,-0.5C 499.5,166.167 499.5,332.833 499.5,499.5C 332.833,499.5 166.167,499.5 -0.5,499.5C -0.5,332.833 -0.5,166.167 -0.5,-0.5 Z"/></g>
<g><path style="opacity:1" fill="#46b9bd" d="M 166.5,246.5 C 180.677,246.171 194.677,246.504 208.5,247.5C 201.852,260.643 194.185,273.143 185.5,285C 182.343,286.578 179.009,287.578 175.5,288C 172.622,290.45 169.288,291.116 165.5,290C 159.835,285.673 159.168,280.673 163.5,275C 169.001,272.455 173.834,273.288 178,277.5C 178.873,277.265 179.707,276.931 180.5,276.5C 185.014,270.137 189.014,263.47 192.5,256.5C 193.043,256.44 193.376,256.107 193.5,255.5C 186.01,254.181 178.677,254.181 171.5,255.5C 166.678,263.806 161.845,272.139 157,280.5C 154.635,283.869 151.468,286.036 147.5,287C 140.5,287.667 133.5,287.667 126.5,287C 122.928,285.431 119.928,283.098 117.5,280C 109.173,279.5 100.84,279.334 92.5,279.5C 92.5,278.167 92.5,276.833 92.5,275.5C 101.682,275.827 110.682,275.493 119.5,274.5C 117.797,272.859 115.63,271.859 113,271.5C 111.04,268.415 109.207,265.248 107.5,262C 102.511,261.501 97.5111,261.334 92.5,261.5C 92.5,259.833 92.5,258.167 92.5,256.5C 98.5368,256.829 104.537,256.496 110.5,255.5C 107.833,254.833 105.167,254.167 102.5,253.5C 101.211,250.42 99.5448,247.586 97.5,245C 86.1716,244.5 74.8382,244.333 63.5,244.5C 63.5,242.833 63.5,241.167 63.5,239.5C 75.1857,239.832 86.8523,239.499 98.5,238.5C 96.3633,237.92 94.53,236.92 93,235.5C 92.2228,232.571 92.3895,229.737 93.5,227C 90.854,226.503 88.1873,226.336 85.5,226.5C 85.5,225.167 85.5,223.833 85.5,222.5C 92.0221,222.823 98.3554,222.49 104.5,221.5C 102.695,219.803 100.361,218.97 97.5,219C 99.5,215.667 101.5,212.333 103.5,209C 97.5092,208.501 91.5092,208.334 85.5,208.5C 85.5,207.167 85.5,205.833 85.5,204.5C 95.1896,204.832 104.856,204.498 114.5,203.5C 112.167,202.833 109.833,202.167 107.5,201.5C 108.624,200.086 109.624,198.586 110.5,197C 105.511,196.501 100.511,196.334 95.5,196.5C 95.5,195.167 95.5,193.833 95.5,192.5C 103.528,192.831 111.528,192.498 119.5,191.5C 117.833,190.833 116.167,190.167 114.5,189.5C 115.752,187.999 116.752,186.332 117.5,184.5C 114.969,174.864 118.636,170.698 128.5,172C 133.155,174.897 134.655,179.063 133,184.5C 130.362,187.317 127.362,189.65 124,191.5C 116.484,205.01 108.984,218.51 101.5,232C 109.655,247.311 118.321,262.311 127.5,277C 134.167,277.667 140.833,277.667 147.5,277C 153.733,266.685 160.066,256.519 166.5,246.5 Z"/></g>
<g><path style="opacity:1" fill="#47b9bd" d="M 172.5,209.5 C 179.677,210.819 187.01,210.819 194.5,209.5C 194.376,208.893 194.043,208.56 193.5,208.5C 189.304,201.278 184.97,194.111 180.5,187C 170.5,186.333 160.5,186.333 150.5,187C 141.103,201.466 132.769,216.466 125.5,232C 128.811,239.678 132.644,247.178 137,254.5C 138.932,256.038 141.099,257.205 143.5,258C 146.803,261.795 147.303,265.962 145,270.5C 136.989,275.904 131.489,274.071 128.5,265C 129.252,262.846 129.419,260.68 129,258.5C 124.413,250.996 120.08,243.329 116,235.5C 115.177,231.262 115.844,227.262 118,223.5C 127.041,207.918 136.207,192.418 145.5,177C 157.5,176.333 169.5,176.333 181.5,177C 184.88,178.371 187.713,180.538 190,183.5C 196.454,195.579 203.288,207.412 210.5,219C 195.822,219.833 181.155,219.666 166.5,218.5C 164.5,214.833 162.5,211.167 160.5,207.5C 152.116,206.404 148.95,201.737 151,193.5C 155.343,187.764 160.343,187.097 166,191.5C 168.389,194.599 168.889,197.933 167.5,201.5C 169.192,204.231 170.858,206.898 172.5,209.5 Z"/></g>
<g><path style="opacity:1" fill="#d8d9d8" d="M 70.5,196.5 C 75.8333,196.5 81.1667,196.5 86.5,196.5C 86.5,197.833 86.5,199.167 86.5,200.5C 81.1667,200.5 75.8333,200.5 70.5,200.5C 70.5,199.167 70.5,197.833 70.5,196.5 Z"/></g>
<g><path style="opacity:1" fill="#dadada" d="M 254.5,196.5 C 262.337,195.968 270.003,196.801 277.5,199C 288.211,206.06 290.378,215.227 284,226.5C 280.889,229.944 277.056,232.111 272.5,233C 266.509,233.499 260.509,233.666 254.5,233.5C 254.5,221.167 254.5,208.833 254.5,196.5 Z"/></g>
<g><path style="opacity:1" fill="#d9d9d9" d="M 297.5,198.5 C 300.64,197.359 303.973,197.192 307.5,198C 308.949,201.273 310.949,204.106 313.5,206.5C 315.611,203.792 317.611,200.959 319.5,198C 322.833,197.333 326.167,197.333 329.5,198C 325.636,203.7 321.969,209.533 318.5,215.5C 322.042,221.418 325.708,227.251 329.5,233C 326.167,233.667 322.833,233.667 319.5,233C 317.457,229.747 315.29,226.58 313,223.5C 311.167,226.5 309.333,229.5 307.5,232.5C 304.167,233.833 300.833,233.833 297.5,232.5C 301.101,226.96 304.435,221.294 307.5,215.5C 304.912,209.314 301.579,203.647 297.5,198.5 Z"/></g>
<g><path style="opacity:1" fill="#dbdbdb" d="M 340.5,196.5 C 347.833,196.5 355.167,196.5 362.5,196.5C 362.5,198.833 362.5,201.167 362.5,203.5C 358.167,203.5 353.833,203.5 349.5,203.5C 349.5,206.167 349.5,208.833 349.5,211.5C 353.5,211.5 357.5,211.5 361.5,211.5C 361.5,213.833 361.5,216.167 361.5,218.5C 357.5,218.5 353.5,218.5 349.5,218.5C 349.5,221.167 349.5,223.833 349.5,226.5C 354.167,226.5 358.833,226.5 363.5,226.5C 363.5,228.833 363.5,231.167 363.5,233.5C 355.833,233.5 348.167,233.5 340.5,233.5C 340.5,221.167 340.5,208.833 340.5,196.5 Z"/></g>
<g><path style="opacity:1" fill="#d9d9d9" d="M 375.5,197.5 C 378.518,197.335 381.518,197.502 384.5,198C 389.21,205.253 394.043,212.42 399,219.5C 399.5,212.174 399.666,204.841 399.5,197.5C 402.167,197.5 404.833,197.5 407.5,197.5C 407.5,209.5 407.5,221.5 407.5,233.5C 404.428,233.817 401.428,233.484 398.5,232.5C 393.803,225.634 389.303,218.634 385,211.5C 384.5,218.826 384.334,226.159 384.5,233.5C 381.5,233.5 378.5,233.5 375.5,233.5C 375.5,221.5 375.5,209.5 375.5,197.5 Z"/></g>
<g><path style="opacity:1" fill="#fdfdfd" d="M 263.5,203.5 C 276.236,203.396 280.736,209.396 277,221.5C 276.535,222.931 275.701,224.097 274.5,225C 270.94,226.237 267.273,226.737 263.5,226.5C 263.5,218.833 263.5,211.167 263.5,203.5 Z"/></g>
<g><path style="opacity:1" fill="#9bdadc" d="M 193.5,208.5 C 194.043,208.56 194.376,208.893 194.5,209.5C 187.01,210.819 179.677,210.819 172.5,209.5C 179.687,209.825 186.687,209.491 193.5,208.5 Z"/></g>
<g><path style="opacity:1" fill="#d8d9d8" d="M 64.5,215.5 C 70.1667,215.5 75.8333,215.5 81.5,215.5C 81.5,216.833 81.5,218.167 81.5,219.5C 75.8333,219.5 70.1667,219.5 64.5,219.5C 64.5,218.167 64.5,216.833 64.5,215.5 Z"/></g>
<g><path style="opacity:1" fill="#a1dcde" d="M 104.5,221.5 C 98.3554,222.49 92.0221,222.823 85.5,222.5C 85.5,223.833 85.5,225.167 85.5,226.5C 84.5489,225.081 84.2155,223.415 84.5,221.5C 91.1667,221.5 97.8333,221.5 104.5,221.5 Z"/></g>
<g><path style="opacity:1" fill="#6fc9cb" d="M 166.5,246.5 C 180.672,245.174 195.006,245.174 209.5,246.5C 209.376,247.107 209.043,247.44 208.5,247.5C 194.677,246.504 180.677,246.171 166.5,246.5 Z"/></g>
<g><path style="opacity:1" fill="#d8d9d8" d="M 49.5,246.5 C 54.5,246.5 59.5,246.5 64.5,246.5C 64.5,247.833 64.5,249.167 64.5,250.5C 59.5,250.5 54.5,250.5 49.5,250.5C 49.5,249.167 49.5,247.833 49.5,246.5 Z"/></g>
<g><path style="opacity:1" fill="#d9d9d9" d="M 74.5,249.5 C 79.5,249.5 84.5,249.5 89.5,249.5C 89.5,250.833 89.5,252.167 89.5,253.5C 84.5,253.5 79.5,253.5 74.5,253.5C 74.5,252.167 74.5,250.833 74.5,249.5 Z"/></g>
<g><path style="opacity:1" fill="#a4dddf" d="M 293.5,254.5 C 292.842,253.602 292.176,252.602 291.5,251.5C 290.509,255.445 290.176,259.445 290.5,263.5C 289.515,259.366 289.182,255.032 289.5,250.5C 290.833,250.5 292.167,250.5 293.5,250.5C 293.5,251.833 293.5,253.167 293.5,254.5 Z"/></g>
<g><path style="opacity:1" fill="#53bdc1" d="M 309.5,251.5 C 313.281,250.789 316.281,251.955 318.5,255C 315.591,254.716 312.758,254.883 310,255.5C 309.28,257.112 309.446,258.612 310.5,260C 313.167,260 315.833,260 318.5,260C 314.819,264.422 310.985,264.588 307,260.5C 305.927,256.9 306.76,253.9 309.5,251.5 Z"/></g>
<g><path style="opacity:1" fill="#50bdc0" d="M 364.5,250.5 C 365.5,250.5 366.5,250.5 367.5,250.5C 367.5,254.833 367.5,259.167 367.5,263.5C 366.5,263.5 365.5,263.5 364.5,263.5C 364.5,259.167 364.5,254.833 364.5,250.5 Z"/></g>
<g><path style="opacity:1" fill="#4cbbbf" d="M 258.5,251.5 C 261.572,251.183 264.572,251.516 267.5,252.5C 266.675,253.386 265.675,253.719 264.5,253.5C 264.5,256.833 264.5,260.167 264.5,263.5C 263.5,263.5 262.5,263.5 261.5,263.5C 261.5,260.167 261.5,256.833 261.5,253.5C 259.821,253.715 258.821,253.048 258.5,251.5 Z"/></g>
<g><path style="opacity:1" fill="#52bdc0" d="M 370.5,251.5 C 375.224,252.397 376.224,254.73 373.5,258.5C 374.547,260.056 375.214,261.723 375.5,263.5C 373.856,263.714 372.356,263.38 371,262.5C 369.925,258.783 369.759,255.116 370.5,251.5 Z"/></g>
<g><path style="opacity:1" fill="#9edbdd" d="M 171.5,255.5 C 178.677,254.181 186.01,254.181 193.5,255.5C 193.376,256.107 193.043,256.44 192.5,256.5C 185.687,255.509 178.687,255.175 171.5,255.5 Z"/></g>
<g><path style="opacity:1" fill="#c4e9ea" d="M 258.5,251.5 C 258.821,253.048 259.821,253.715 261.5,253.5C 261.5,256.833 261.5,260.167 261.5,263.5C 260.523,260.713 260.19,257.713 260.5,254.5C 259.5,254.5 258.5,254.5 257.5,254.5C 257.263,253.209 257.596,252.209 258.5,251.5 Z"/></g>
<g><path style="opacity:1" fill="#58bfc2" d="M 271.5,253.5 C 275.806,253.303 277.806,255.303 277.5,259.5C 275.473,259.338 273.473,259.505 271.5,260C 272,260.5 272.5,261 273,261.5C 274.388,260.446 275.888,260.28 277.5,261C 270.834,265.347 268.001,263.514 269,255.5C 269.995,254.934 270.828,254.267 271.5,253.5 Z"/></g>
<g><path style="opacity:1" fill="#5fc1c5" d="M 281.5,253.5 C 284.463,253.151 286.796,254.151 288.5,256.5C 286.865,257.681 285.198,257.681 283.5,256.5C 282.571,257.689 282.238,259.022 282.5,260.5C 289.535,260.016 290.035,261.016 284,263.5C 279.794,262.472 278.461,259.805 280,255.5C 280.717,254.956 281.217,254.289 281.5,253.5 Z"/></g>
<g><path style="opacity:1" fill="#4fbcc0" d="M 293.5,254.5 C 295.611,253.032 297.444,253.365 299,255.5C 299.497,258.146 299.664,260.813 299.5,263.5C 298.5,263.5 297.5,263.5 296.5,263.5C 296.5,261.167 296.5,258.833 296.5,256.5C 295.5,256.5 294.5,256.5 293.5,256.5C 293.5,258.833 293.5,261.167 293.5,263.5C 292.5,263.5 291.5,263.5 290.5,263.5C 290.176,259.445 290.509,255.445 291.5,251.5C 292.176,252.602 292.842,253.602 293.5,254.5 Z"/></g>
<g><path style="opacity:1" fill="#55bec2" d="M 322.5,253.5 C 329.297,254.107 330.964,257.274 327.5,263C 322.932,264.65 320.266,263.15 319.5,258.5C 320.092,256.577 321.092,254.911 322.5,253.5 Z"/></g>
<g><path style="opacity:1" fill="#54bec1" d="M 331.5,253.5 C 333.477,254.149 335.31,254.149 337,253.5C 338.261,253.759 339.261,254.426 340,255.5C 340.497,258.146 340.664,260.813 340.5,263.5C 339.5,263.5 338.5,263.5 337.5,263.5C 337.5,261.167 337.5,258.833 337.5,256.5C 336.5,256.5 335.5,256.5 334.5,256.5C 334.5,258.833 334.5,261.167 334.5,263.5C 333.5,263.5 332.5,263.5 331.5,263.5C 331.5,260.167 331.5,256.833 331.5,253.5 Z"/></g>
<g><path style="opacity:1" fill="#53bdc1" d="M 352.5,253.5 C 353.5,253.5 354.5,253.5 355.5,253.5C 355.5,255.833 355.5,258.167 355.5,260.5C 356.833,260.5 358.167,260.5 359.5,260.5C 359.5,258.167 359.5,255.833 359.5,253.5C 360.5,253.5 361.5,253.5 362.5,253.5C 362.5,256.833 362.5,260.167 362.5,263.5C 359.938,262.82 357.271,262.653 354.5,263C 352.66,260.174 351.994,257.007 352.5,253.5 Z"/></g>
<g><path style="opacity:1" fill="#67c5c8" d="M 377.5,250.5 C 378.5,250.5 379.5,250.5 380.5,250.5C 380.5,254.833 380.5,259.167 380.5,263.5C 379.5,263.5 378.5,263.5 377.5,263.5C 377.5,259.167 377.5,254.833 377.5,250.5 Z"/></g>
<g><path style="opacity:1" fill="#58bfc2" d="M 382.5,253.5 C 385.062,254.18 387.729,254.347 390.5,254C 392.34,256.826 393.006,259.993 392.5,263.5C 391.5,263.5 390.5,263.5 389.5,263.5C 389.662,261.473 389.495,259.473 389,257.5C 388,256.167 387,256.167 386,257.5C 385.505,259.473 385.338,261.473 385.5,263.5C 384.5,263.5 383.5,263.5 382.5,263.5C 382.5,260.167 382.5,256.833 382.5,253.5 Z"/></g>
<g><path style="opacity:1" fill="#4ebcbf" d="M 396.5,254.5 C 398.833,254.5 401.167,254.5 403.5,254.5C 403.5,258.167 403.5,261.833 403.5,265.5C 401.092,269.013 398.258,269.346 395,266.5C 394.409,265.517 394.743,264.85 396,264.5C 398.271,266.125 400.104,265.791 401.5,263.5C 395.797,264.272 393.63,261.605 395,255.5C 395.383,254.944 395.883,254.611 396.5,254.5 Z"/></g>
<g><path style="opacity:1" fill="#9ad9db" d="M 396.5,254.5 C 398.948,253.527 401.615,253.194 404.5,253.5C 404.817,257.702 404.483,261.702 403.5,265.5C 403.5,261.833 403.5,258.167 403.5,254.5C 401.167,254.5 398.833,254.5 396.5,254.5 Z"/></g>
<g><path style="opacity:1" fill="#f4fbfb" d="M 323.5,256.5 C 325.912,256.694 326.912,258.027 326.5,260.5C 325.167,260.5 323.833,260.5 322.5,260.5C 322.433,259.041 322.766,257.708 323.5,256.5 Z"/></g>
<g><path style="opacity:1" fill="#ebf7f7" d="M 397.5,256.5 C 400.5,256.167 401.833,257.5 401.5,260.5C 400.167,260.5 398.833,260.5 397.5,260.5C 397.5,259.167 397.5,257.833 397.5,256.5 Z"/></g>
<g><path style="opacity:1" fill="#53bdc1" d="M 344.5,253.5 C 351.305,254.707 351.639,255.874 345.5,257C 347.025,258.009 348.692,258.509 350.5,258.5C 350.917,263.068 348.917,264.568 344.5,263C 343.833,262.333 343.167,261.667 342.5,261C 348.676,261.488 348.842,260.654 343,258.5C 342.387,256.505 342.887,254.838 344.5,253.5 Z"/></g>
<g><path style="opacity:1" fill="#d8d9d8" d="M 74.5,269.5 C 80.8333,269.5 87.1667,269.5 93.5,269.5C 93.5,270.833 93.5,272.167 93.5,273.5C 87.1667,273.5 80.8333,273.5 74.5,273.5C 74.5,272.167 74.5,270.833 74.5,269.5 Z"/></g>
<g><path style="opacity:1" fill="#a3dcde" d="M 119.5,274.5 C 110.682,275.493 101.682,275.827 92.5,275.5C 92.5,276.833 92.5,278.167 92.5,279.5C 91.5489,278.081 91.2155,276.415 91.5,274.5C 100.833,274.5 110.167,274.5 119.5,274.5 Z"/></g>
</svg>
