<?xml version="1.0" encoding="UTF-8"?>
<!DOCTYPE svg PUBLIC "-//W3C//DTD SVG 1.1//EN" "http://www.w3.org/Graphics/SVG/1.1/DTD/svg11.dtd">
<svg xmlns="http://www.w3.org/2000/svg" version="1.1" width="500px" height="500px" style="shape-rendering:geometricPrecision; text-rendering:geometricPrecision; image-rendering:optimizeQuality; fill-rule:evenodd; clip-rule:evenodd" xmlns:xlink="http://www.w3.org/1999/xlink">
<g><path style="opacity:1" fill="#fefefe" d="M -0.5,-0.5 C 166.167,-0.5 332.833,-0.5 499.5,-0.5C 499.5,166.167 499.5,332.833 499.5,499.5C 332.833,499.5 166.167,499.5 -0.5,499.5C -0.5,332.833 -0.5,166.167 -0.5,-0.5 Z"/></g>
<g><path style="opacity:1" fill="#55ddfe" d="M 179.5,188.5 C 183.995,188.794 185.162,190.794 183,194.5C 183.112,201.94 182.279,209.106 180.5,216C 175.267,217.475 170.267,219.142 165.5,221C 160.57,215.396 155.07,210.562 149,206.5C 148.506,204.866 148.34,203.199 148.5,201.5C 152.831,200.451 154.997,202.118 155,206.5C 158.5,210 162,213.5 165.5,217C 170.173,216.182 174.84,215.016 179.5,213.5C 179.322,205.055 179.322,196.721 179.5,188.5 Z"/></g>
<g><path style="opacity:1" fill="#f7fdff" d="M 179.5,190.5 C 180.5,190.5 181.5,190.5 182.5,190.5C 181.754,194.31 180.754,194.31 179.5,190.5 Z"/></g>
<g><path style="opacity:1" fill="#f7fdff" d="M 150.5,202.5 C 152.048,202.821 152.715,203.821 152.5,205.5C 149.752,205.598 149.086,204.598 150.5,202.5 Z"/></g>
<g><path style="opacity:1" fill="#c0f2fa" d="M 162.5,251.5 C 150.66,250.833 138.66,250.167 126.5,249.5C 138.66,248.833 150.66,248.167 162.5,247.5C 162.34,245.801 162.506,244.134 163,242.5C 165.019,238.809 166.686,235.142 168,231.5C 159.549,222.543 150.716,214.21 141.5,206.5C 139.915,205.998 139.415,204.998 140,203.5C 141.133,201.789 142.633,201.289 144.5,202C 145.268,204.369 146.435,206.535 148,208.5C 155.97,215.469 163.636,222.802 171,230.5C 174.256,228.121 177.756,226.121 181.5,224.5C 182.429,225.689 182.762,227.022 182.5,228.5C 169.737,232.325 164.237,240.991 166,254.5C 168.068,263.401 173.568,268.735 182.5,270.5C 182.5,271.5 182.5,272.5 182.5,273.5C 177.862,272.497 173.529,270.997 169.5,269C 159.867,278.127 150.867,287.627 142.5,297.5C 138.18,293.954 138.847,291.788 144.5,291C 152.333,283.167 160.167,275.333 168,267.5C 165.509,262.531 163.676,257.198 162.5,251.5 Z"/></g>
<g><path style="opacity:1" fill="#f7fdfe" d="M 141.5,206.5 C 141.5,205.5 141.5,204.5 141.5,203.5C 142.5,203.5 143.5,203.5 144.5,203.5C 144.5,204.5 144.5,205.5 144.5,206.5C 143.5,206.5 142.5,206.5 141.5,206.5 Z"/></g>
<g><path style="opacity:1" fill="#27d7fe" d="M 194.5,212.5 C 206.505,212.333 218.505,212.5 230.5,213C 251.104,213.595 258.604,223.762 253,243.5C 248.138,250.582 241.304,254.082 232.5,254C 219.838,254.5 207.171,254.667 194.5,254.5C 194.5,240.5 194.5,226.5 194.5,212.5 Z"/></g>
<g><path style="opacity:1" fill="#2bd8fe" d="M 259.5,213.5 C 265.319,212.347 271.319,212.181 277.5,213C 281.333,216.833 285.167,220.667 289,224.5C 292.708,220.623 296.542,216.957 300.5,213.5C 306.5,212.167 312.5,212.167 318.5,213.5C 311.65,220.184 304.65,226.684 297.5,233C 304.5,240 311.5,247 318.5,254C 312.5,254.667 306.5,254.667 300.5,254C 297.353,249.686 293.686,245.852 289.5,242.5C 285.348,246.151 281.348,249.984 277.5,254C 271.5,254.667 265.5,254.667 259.5,254C 266.374,246.958 273.374,240.125 280.5,233.5C 274.111,226.109 267.111,219.443 259.5,213.5 Z"/></g>
<g><path style="opacity:1" fill="#26d7fe" d="M 344.5,237.5 C 343.532,239.607 343.198,241.941 343.5,244.5C 354.5,244.5 365.5,244.5 376.5,244.5C 376.5,247.833 376.5,251.167 376.5,254.5C 359.833,254.5 343.167,254.5 326.5,254.5C 326.5,240.5 326.5,226.5 326.5,212.5C 342.5,212.5 358.5,212.5 374.5,212.5C 374.5,216.167 374.5,219.833 374.5,223.5C 364.5,223.5 354.5,223.5 344.5,223.5C 344.5,225.5 344.5,227.5 344.5,229.5C 352.833,229.5 361.167,229.5 369.5,229.5C 369.5,232.167 369.5,234.833 369.5,237.5C 361.167,237.5 352.833,237.5 344.5,237.5 Z"/></g>
<g><path style="opacity:1" fill="#29d7fe" d="M 385.5,212.5 C 392.508,212.334 399.508,212.5 406.5,213C 414,221.833 421.5,230.667 429,239.5C 429.5,230.506 429.666,221.506 429.5,212.5C 435.5,212.5 441.5,212.5 447.5,212.5C 447.5,226.5 447.5,240.5 447.5,254.5C 440.492,254.666 433.492,254.5 426.5,254C 419,245.167 411.5,236.333 404,227.5C 403.5,236.494 403.334,245.494 403.5,254.5C 397.5,254.5 391.5,254.5 385.5,254.5C 385.5,240.5 385.5,226.5 385.5,212.5 Z"/></g>
<g><path style="opacity:1" fill="#52ddfe" d="M 140.5,211.5 C 141.85,208.894 143.35,208.894 145,211.5C 148.895,217.402 153.561,222.736 159,227.5C 159.667,228.5 159.667,229.5 159,230.5C 156.295,234.443 154.462,238.776 153.5,243.5C 146.524,244.331 139.524,244.831 132.5,245C 128.643,247.152 126.809,245.985 127,241.5C 127.725,240.941 128.558,240.608 129.5,240.5C 136.796,241.431 144.129,241.765 151.5,241.5C 152.188,236.956 153.854,232.789 156.5,229C 151.818,223.301 146.318,218.801 140,215.5C 139.235,213.934 139.402,212.601 140.5,211.5 Z"/></g>
<g><path style="opacity:1" fill="#f7fdff" d="M 140.5,211.5 C 141.5,211.5 142.5,211.5 143.5,211.5C 142.754,215.31 141.754,215.31 140.5,211.5 Z"/></g>
<g><path style="opacity:1" fill="#fbfeff" d="M 212.5,223.5 C 218.925,223.13 225.258,223.63 231.5,225C 235.084,226.664 236.751,229.497 236.5,233.5C 236.673,238.496 234.34,241.663 229.5,243C 223.899,244.217 218.232,244.717 212.5,244.5C 212.5,237.5 212.5,230.5 212.5,223.5 Z"/></g>
<g><path style="opacity:1" fill="#f0fcff" d="M 128.5,241.5 C 132.31,242.754 132.31,243.754 128.5,244.5C 128.5,243.5 128.5,242.5 128.5,241.5 Z"/></g>
<g><path style="opacity:1" fill="#aff1fe" d="M 344.5,237.5 C 344.5,239.5 344.5,241.5 344.5,243.5C 355.346,243.172 366.013,243.506 376.5,244.5C 365.5,244.5 354.5,244.5 343.5,244.5C 343.198,241.941 343.532,239.607 344.5,237.5 Z"/></g>
<g><path style="opacity:1" fill="#e9fafd" d="M 162.5,247.5 C 150.66,248.167 138.66,248.833 126.5,249.5C 138.66,250.167 150.66,250.833 162.5,251.5C 149.122,251.409 135.789,251.576 122.5,252C 120.816,249.214 121.483,247.38 124.5,246.5C 137.136,247.462 149.802,247.795 162.5,247.5 Z"/></g>
<g><path style="opacity:1" fill="#53ddfe" d="M 127.5,252.5 C 136.216,254.022 145.049,255.022 154,255.5C 155.736,260.932 157.403,266.265 159,271.5C 152.893,277.1 147.393,283.1 142.5,289.5C 139.856,288.259 139.023,286.259 140,283.5C 146.499,280.181 151.999,275.514 156.5,269.5C 154.022,266.211 152.356,262.544 151.5,258.5C 144.159,257.234 136.826,257.234 129.5,258.5C 126.396,257.443 125.73,255.443 127.5,252.5 Z"/></g>
<g><path style="opacity:1" fill="#fafeff" d="M 128.5,254.5 C 131.548,254.494 132.048,255.494 130,257.5C 128.961,256.756 128.461,255.756 128.5,254.5 Z"/></g>
<g><path style="opacity:1" fill="#c4f3fa" d="M 195.5,264.5 C 198.572,264.183 201.572,264.516 204.5,265.5C 203.311,266.429 201.978,266.762 200.5,266.5C 200.167,282.5 199.833,282.5 199.5,266.5C 197.517,266.843 196.183,266.176 195.5,264.5 Z"/></g>
<g><path style="opacity:1" fill="#c2f3fa" d="M 212.5,264.5 C 214.924,264.192 217.257,264.526 219.5,265.5C 217.955,266.452 216.288,266.785 214.5,266.5C 214.5,267.833 214.5,269.167 214.5,270.5C 221.167,271.167 221.167,271.833 214.5,272.5C 214.5,274.167 214.5,275.833 214.5,277.5C 216.199,277.34 217.866,277.506 219.5,278C 217.19,278.497 214.857,278.663 212.5,278.5C 212.5,273.833 212.5,269.167 212.5,264.5 Z"/></g>
<g><path style="opacity:1" fill="#c1f3fa" d="M 308.5,264.5 C 310.43,268.373 311.097,272.706 310.5,277.5C 312.199,277.34 313.866,277.506 315.5,278C 313.19,278.497 310.857,278.663 308.5,278.5C 308.5,273.833 308.5,269.167 308.5,264.5 Z"/></g>
<g><path style="opacity:1" fill="#c7f4fa" d="M 232.5,264.5 C 235.99,264.245 238.657,265.578 240.5,268.5C 240.167,268.833 239.833,269.167 239.5,269.5C 232.929,264.702 229.762,266.369 230,274.5C 230.5,275 231,275.5 231.5,276C 234.758,276.616 237.758,276.283 240.5,275C 236.083,279.732 231.916,279.565 228,274.5C 226.571,269.783 228.071,266.45 232.5,264.5 Z"/></g>
<g><path style="opacity:1" fill="#c6f4fa" d="M 268.5,265.5 C 270.017,265.511 271.184,266.177 272,267.5C 273.667,270.167 275.333,272.833 277,275.5C 277.333,272.167 277.667,268.833 278,265.5C 278.828,269.871 278.661,274.205 277.5,278.5C 275.333,275.5 273.167,272.5 271,269.5C 270.821,272.553 270.321,275.553 269.5,278.5C 268.508,274.217 268.174,269.884 268.5,265.5 Z"/></g>
<g><path style="opacity:1" fill="#c6f4fa" d="M 291.5,264.5 C 298.141,264.639 300.974,267.972 300,274.5C 296.399,279.321 292.399,279.654 288,275.5C 286.663,270.916 287.829,267.249 291.5,264.5 Z"/></g>
<g><path style="opacity:1" fill="#fdfefe" d="M 291.5,266.5 C 298.628,266.706 300.294,269.873 296.5,276C 289.923,277.591 287.756,275.091 290,268.5C 290.717,267.956 291.217,267.289 291.5,266.5 Z"/></g>
<g><path style="opacity:1" fill="#c8f4fa" d="M 257.5,264.5 C 258.805,266.397 259.471,268.731 259.5,271.5C 259.167,273.833 258.833,276.167 258.5,278.5C 257.534,276.604 257.201,274.604 257.5,272.5C 255.5,272.5 253.5,272.5 251.5,272.5C 251.799,274.604 251.466,276.604 250.5,278.5C 249.143,270.504 249.143,267.838 250.5,270.5C 252.833,270.5 255.167,270.5 257.5,270.5C 257.5,268.5 257.5,266.5 257.5,264.5 Z"/></g>
<g><path style="opacity:1" fill="#c4f3fa" d="M 364.5,265.5 C 366.686,266.823 368.186,268.823 369,271.5C 369.833,269.833 370.667,268.167 371.5,266.5C 372.167,265.167 372.833,265.167 373.5,266.5C 371.348,270.22 370.015,274.22 369.5,278.5C 368.317,273.983 366.65,269.649 364.5,265.5 Z"/></g>
<g><path style="opacity:1" fill="#c6f3fa" d="M 326.5,264.5 C 333.978,264.485 336.811,268.152 335,275.5C 330.601,279.654 326.601,279.321 323,274.5C 322.333,272.5 322.333,270.5 323,268.5C 324.376,267.295 325.542,265.962 326.5,264.5 Z"/></g>
<g><path style="opacity:1" fill="#fdfefe" d="M 326.5,266.5 C 333.265,266.464 335.265,269.631 332.5,276C 324.424,276.805 322.424,273.638 326.5,266.5 Z"/></g>
<g><path style="opacity:1" fill="#c5f3fa" d="M 347.5,264.5 C 350.798,264.016 353.464,265.016 355.5,267.5C 354.424,268.656 353.424,268.489 352.5,267C 346.498,266.007 344.332,268.507 346,274.5C 348.153,276.444 350.653,276.944 353.5,276C 354.337,274.989 354.67,273.822 354.5,272.5C 352.801,272.66 351.134,272.494 349.5,272C 351.81,271.503 354.143,271.337 356.5,271.5C 355.608,278.456 351.941,280.289 345.5,277C 342.438,272.206 343.105,268.04 347.5,264.5 Z"/></g>
<g><path style="opacity:1" fill="#51ddfe" d="M 165.5,277.5 C 170.562,280.023 175.896,282.023 181.5,283.5C 182.331,290.476 182.831,297.476 183,304.5C 185.152,308.357 183.985,310.191 179.5,310C 179.339,301.946 179.339,293.779 179.5,285.5C 174.84,283.984 170.173,282.818 165.5,282C 160.529,286.128 156.529,290.961 153.5,296.5C 150.034,298.174 148.201,297.174 148,293.5C 154.605,289.064 160.438,283.731 165.5,277.5 Z"/></g>
<g><path style="opacity:1" fill="#fbfeff" d="M 141.5,284.5 C 143.465,284.948 143.798,285.948 142.5,287.5C 140.481,286.867 140.147,285.867 141.5,284.5 Z"/></g>
<g><path style="opacity:1" fill="#f9feff" d="M 149.5,293.5 C 150.5,293.5 151.5,293.5 152.5,293.5C 151.754,297.31 150.754,297.31 149.5,293.5 Z"/></g>
<g><path style="opacity:1" fill="#f3fcff" d="M 180.5,305.5 C 182.048,305.821 182.715,306.821 182.5,308.5C 179.752,308.598 179.086,307.598 180.5,305.5 Z"/></g>
</svg>
